<?xml version="1.0" encoding="UTF-8" standalone="no"?><svg xmlns="http://www.w3.org/2000/svg" xmlns:xlink="http://www.w3.org/1999/xlink" contentStyleType="text/css" height="128px" preserveAspectRatio="none" style="width:1142px;height:128px;background:#FFFFFF;" version="1.1" viewBox="0 0 1142 128" width="1142px" zoomAndPan="magnify"><defs/><g><line style="stroke:#181818;stroke-width:1.5;" x1="33" x2="33" y1="63.9688" y2="83.9688"/><rect fill="#F1F1F1" height="33.9688" style="stroke:#181818;stroke-width:1.5;" width="46" x="10" y="83.9688"/><text fill="#000000" font-family="sans-serif" font-size="12" lengthAdjust="spacing" textLength="26" x="20" y="105.1074">/bin/</text><line style="stroke:#181818;stroke-width:1.5;" x1="104" x2="104" y1="63.9688" y2="83.9688"/><rect fill="#F1F1F1" height="33.9688" style="stroke:#181818;stroke-width:1.5;" width="56" x="76" y="83.9688"/><text fill="#000000" font-family="sans-serif" font-size="12" lengthAdjust="spacing" textLength="36" x="86" y="105.1074">/boot/</text><line style="stroke:#181818;stroke-width:1.5;" x1="177.5" x2="177.5" y1="63.9688" y2="83.9688"/><rect fill="#F1F1F1" height="33.9688" style="stroke:#181818;stroke-width:1.5;" width="51" x="152" y="83.9688"/><text fill="#000000" font-family="sans-serif" font-size="12" lengthAdjust="spacing" textLength="31" x="162" y="105.1074">/dev/</text><line style="stroke:#181818;stroke-width:1.5;" x1="246.5" x2="246.5" y1="63.9688" y2="83.9688"/><rect fill="#F1F1F1" height="33.9688" style="stroke:#181818;stroke-width:1.5;" width="47" x="223" y="83.9688"/><text fill="#000000" font-family="sans-serif" font-size="12" lengthAdjust="spacing" textLength="27" x="233" y="105.1074">/etc/</text><line style="stroke:#181818;stroke-width:1.5;" x1="321" x2="321" y1="63.9688" y2="83.9688"/><rect fill="#F1F1F1" height="33.9688" style="stroke:#181818;stroke-width:1.5;" width="62" x="290" y="83.9688"/><text fill="#000000" font-family="sans-serif" font-size="12" lengthAdjust="spacing" textLength="42" x="300" y="105.1074">/home/</text><line style="stroke:#181818;stroke-width:1.5;" x1="393" x2="393" y1="63.9688" y2="83.9688"/><rect fill="#F1F1F1" height="33.9688" style="stroke:#181818;stroke-width:1.5;" width="42" x="372" y="83.9688"/><text fill="#000000" font-family="sans-serif" font-size="12" lengthAdjust="spacing" textLength="22" x="382" y="105.1074">/lib/</text><line style="stroke:#181818;stroke-width:1.5;" x1="466.5" x2="466.5" y1="63.9688" y2="83.9688"/><rect fill="#F1F1F1" height="33.9688" style="stroke:#181818;stroke-width:1.5;" width="65" x="434" y="83.9688"/><text fill="#000000" font-family="sans-serif" font-size="12" lengthAdjust="spacing" textLength="45" x="444" y="105.1074">/media/</text><line style="stroke:#181818;stroke-width:1.5;" x1="544" x2="544" y1="63.9688" y2="83.9688"/><rect fill="#F1F1F1" height="33.9688" style="stroke:#181818;stroke-width:1.5;" width="50" x="519" y="83.9688"/><text fill="#000000" font-family="sans-serif" font-size="12" lengthAdjust="spacing" textLength="30" x="529" y="105.1074">/mnt/</text><line style="stroke:#181818;stroke-width:1.5;" x1="613" x2="613" y1="63.9688" y2="83.9688"/><rect fill="#F1F1F1" height="33.9688" style="stroke:#181818;stroke-width:1.5;" width="48" x="589" y="83.9688"/><text fill="#000000" font-family="sans-serif" font-size="12" lengthAdjust="spacing" textLength="28" x="599" y="105.1074">/opt/</text><line style="stroke:#181818;stroke-width:1.5;" x1="685" x2="685" y1="63.9688" y2="83.9688"/><rect fill="#F1F1F1" height="33.9688" style="stroke:#181818;stroke-width:1.5;" width="56" x="657" y="83.9688"/><text fill="#000000" font-family="sans-serif" font-size="12" lengthAdjust="spacing" textLength="36" x="667" y="105.1074">/proc/</text><line style="stroke:#181818;stroke-width:1.5;" x1="759.5" x2="759.5" y1="63.9688" y2="83.9688"/><rect fill="#F1F1F1" height="33.9688" style="stroke:#181818;stroke-width:1.5;" width="53" x="733" y="83.9688"/><text fill="#000000" font-family="sans-serif" font-size="12" lengthAdjust="spacing" textLength="33" x="743" y="105.1074">/root/</text><line style="stroke:#181818;stroke-width:1.5;" x1="832.5" x2="832.5" y1="63.9688" y2="83.9688"/><rect fill="#F1F1F1" height="33.9688" style="stroke:#181818;stroke-width:1.5;" width="53" x="806" y="83.9688"/><text fill="#000000" font-family="sans-serif" font-size="12" lengthAdjust="spacing" textLength="33" x="816" y="105.1074">/sbin/</text><line style="stroke:#181818;stroke-width:1.5;" x1="902.5" x2="902.5" y1="63.9688" y2="83.9688"/><rect fill="#F1F1F1" height="33.9688" style="stroke:#181818;stroke-width:1.5;" width="47" x="879" y="83.9688"/><text fill="#000000" font-family="sans-serif" font-size="12" lengthAdjust="spacing" textLength="27" x="889" y="105.1074">/srv/</text><line style="stroke:#181818;stroke-width:1.5;" x1="971.5" x2="971.5" y1="63.9688" y2="83.9688"/><rect fill="#F1F1F1" height="33.9688" style="stroke:#181818;stroke-width:1.5;" width="51" x="946" y="83.9688"/><text fill="#000000" font-family="sans-serif" font-size="12" lengthAdjust="spacing" textLength="31" x="956" y="105.1074">/tmp/</text><line style="stroke:#181818;stroke-width:1.5;" x1="1040.5" x2="1040.5" y1="63.9688" y2="83.9688"/><rect fill="#F1F1F1" height="33.9688" style="stroke:#181818;stroke-width:1.5;" width="47" x="1017" y="83.9688"/><text fill="#000000" font-family="sans-serif" font-size="12" lengthAdjust="spacing" textLength="27" x="1027" y="105.1074">/usr/</text><line style="stroke:#181818;stroke-width:1.5;" x1="1107.5" x2="1107.5" y1="63.9688" y2="83.9688"/><rect fill="#F1F1F1" height="33.9688" style="stroke:#181818;stroke-width:1.5;" width="47" x="1084" y="83.9688"/><text fill="#000000" font-family="sans-serif" font-size="12" lengthAdjust="spacing" textLength="27" x="1094" y="105.1074">/var/</text><line style="stroke:#181818;stroke-width:1.5;" x1="33" x2="1107.5" y1="63.9688" y2="63.9688"/><rect fill="#F1F1F1" height="33.9688" style="stroke:#181818;stroke-width:1.5;" width="24" x="558.25" y="10"/><text fill="#000000" font-family="sans-serif" font-size="12" lengthAdjust="spacing" textLength="4" x="568.25" y="31.1387">/</text><line style="stroke:#181818;stroke-width:1.5;" x1="570.25" x2="570.25" y1="43.9688" y2="63.9688"/><!--SRC=[FSx1JiCm30RWUvx2ntNIDZOcX7QQW06QMccYw-vfQqf4OrU9suct9oLbb-XBuj_stejsSYszciDApSDH6fh0B54r3X4eLSGNMungJHbXiJPw8ar1xYPqZgUaktNrjqdUJVt5TX6zTn633jWZrUEAwjHgaY9BOK3d3HEibvkxpVroNQBexQoWR-8hGSMsCos268k9chsTKl3SkmgXDbwSANi9uKGTzQ3XewUnRWVZRNRE4iWF_uzmeC4u9eiawdZ9OX6yi-GTor_nmtRnP0HoT64dk6Jg1Jzrtqg8LbmRQdPGd5yNZohLrFIw2OEGr3E70Uud_EM_]--></g></svg>